<svg xmlns="http://www.w3.org/2000/svg" xmlns:xlink="http://www.w3.org/1999/xlink" viewBox="0,0,256,256" width="24px" height="24px" fill-rule="nonzero"><g fill="#869ab8" fill-rule="nonzero" stroke="none" stroke-width="1" stroke-linecap="butt" stroke-linejoin="miter" stroke-miterlimit="10" stroke-dasharray="" stroke-dashoffset="0" font-family="none" font-weight="none" font-size="none" text-anchor="none" style="mix-blend-mode: normal"><g transform="scale(5.33333,5.33333)"><path d="M17.10742,5.00781v1.5l-0.64844,0.34961l-0.63281,-1.06641l-12.63086,23.17188c-0.23595,0.43305 -0.24398,0.95441 -0.02148,1.39453l5.98828,11.82031c0.25543,0.50426 0.77263,0.82213 1.33789,0.82227h26c0.53431,0 1.0283,-0.28419 1.29688,-0.74609l6.88867,-11.83789c0.20321,-0.26218 0.31379,-0.58431 0.31445,-0.91602v-0.0293c-0.00083,-0.31922 -0.10346,-0.62984 -0.29297,-0.88672l-12.50391,-22.79687c-0.2631,-0.48018 -0.76692,-0.77888 -1.31445,-0.7793h-13.74414zM19.61914,8.00781h10.38086l10.95313,19.96484l-10.56641,0.01367zM17.11914,9.68945l4.88477,9.06445l-11.41211,19.60742l-4.38477,-8.65625zM23.67383,21.84961l3.30859,6.14063l-6.88672,0.00781zM40.89063,30.97461l-5.25391,9.02539h-22.52734l5.23828,-9z"></path></g></g></svg>